<svg xmlns="http://www.w3.org/2000/svg" xmlns:xlink="http://www.w3.org/1999/xlink" viewBox="0 0 121.63 111.83"><defs><style>.cls-1,.cls-2,.cls-4{stroke:#222221;}.cls-1,.cls-2,.cls-3,.cls-4{stroke-miterlimit:10;stroke-width:2px;}.cls-1{fill:url(#Безымянный_градиент_49);}.cls-2{fill:#fff;}.cls-3,.cls-4{fill:none;}.cls-3{stroke:#000;}</style><linearGradient id="Безымянный_градиент_49" x1="19" y1="42.42" x2="101.84" y2="42.42" gradientUnits="userSpaceOnUse"><stop offset="0" stop-color="#ee6c4f"/><stop offset="1" stop-color="#ff4959"/></linearGradient></defs><title>2</title><g id="Слой_2" data-name="Слой 2"><g id="Слой_1-2" data-name="Слой 1"><path class="cls-1" d="M101.84,42.42A41.42,41.42,0,1,1,60.42,1,41.41,41.41,0,0,1,101.84,42.42Z"/><path class="cls-2" d="M85.56,42.29A25.14,25.14,0,1,1,60.43,17.16,25.13,25.13,0,0,1,85.56,42.29Z"/><polyline class="cls-3" points="77.5 30.41 53.48 54.43 43.14 44.09"/><path class="cls-4" d="M89.78,71.41s3.74,22.77,22.41,26.77h-16l.45,12.15s-21.55-8.74-21.85-29.27"/><path class="cls-4" d="M31.85,71.41S28.11,94.18,9.44,98.18h16L25,110.33s21.54-8.74,21.85-29.27"/></g></g></svg>