<svg xmlns="http://www.w3.org/2000/svg" xmlns:xlink="http://www.w3.org/1999/xlink" viewBox="0 0 64.29 81.94"><defs><style>.cls-1,.cls-2,.cls-3{stroke:#201600;stroke-miterlimit:10;stroke-width:2px;}.cls-1{fill:url(#Безымянный_градиент_34);}.cls-2{fill:none;}.cls-3{fill:url(#Безымянный_градиент_49);}</style><linearGradient id="Безымянный_градиент_34" x1="1" y1="65.43" x2="63.29" y2="65.43" gradientUnits="userSpaceOnUse"><stop offset="0" stop-color="#ee6c4f"/><stop offset="1" stop-color="#f7395e"/></linearGradient><linearGradient id="Безымянный_градиент_49" x1="16.11" y1="12.09" x2="48.43" y2="12.09" gradientUnits="userSpaceOnUse"><stop offset="0" stop-color="#ee6c4f"/><stop offset="1" stop-color="#ff4959"/></linearGradient></defs><title>3</title><g id="Слой_2" data-name="Слой 2"><g id="Слой_1-2" data-name="Слой 1"><path class="cls-1" d="M40.53,49.92,32.15,56.5l-8.39-6.58C1.71,51.05,1,58.52,1,58.52V80.94H63.29V58.52S62.59,51.05,40.53,49.92Z"/><line class="cls-2" x1="10.92" y1="51.74" x2="10.92" y2="80.94"/><line class="cls-2" x1="52.35" y1="51.74" x2="52.35" y2="80.94"/><polyline class="cls-2" points="23.77 49.92 24.13 38.07 24.93 38.07"/><polyline class="cls-2" points="39.36 38.07 40.12 38.07 40.53 49.92"/><path class="cls-2" d="M20.2,21.14a18,18,0,0,0,0,9.14c1.6,6.12,6.35,10.55,12,10.55s10.43-4.52,12-10.72A18.25,18.25,0,0,0,44.05,21"/><path class="cls-2" d="M44.14,30.11a4.82,4.82,0,0,0,4.8-4.58A4.83,4.83,0,0,0,44.05,21c-4.89-2.11-9.11-4.25-9.11-4.25C31.5,25.82,20.2,21.14,20.2,21.14a4.81,4.81,0,0,0-4.7,4.57,4.81,4.81,0,0,0,4.7,4.57"/><line class="cls-2" x1="47.19" y1="29" x2="47.19" y2="28.99"/><path class="cls-3" d="M48.32,23.07a5.17,5.17,0,0,0-4.22-2.32c-4.89-2.11-9.1-4.24-9.1-4.24-3.45,9.11-14.75,4.43-14.75,4.43a5.19,5.19,0,0,0-4,2.24C16.08,21.56,14.15,1,31.79,1,49.89,1,48.54,20.75,48.32,23.07Z"/><path class="cls-2" d="M48.32,23.07c0,.14,0,.22,0,.22"/><path class="cls-2" d="M16.27,23.28a.82.82,0,0,0,0-.1"/></g></g></svg>