<svg xmlns="http://www.w3.org/2000/svg" xmlns:xlink="http://www.w3.org/1999/xlink" viewBox="0 0 189.2 67.09"><defs><style>.cls-1,.cls-3,.cls-4{fill:none;}.cls-1,.cls-2,.cls-3,.cls-4,.cls-6,.cls-7{stroke:#1c1c1b;}.cls-1,.cls-2,.cls-3,.cls-4{stroke-linecap:round;stroke-linejoin:round;}.cls-1{stroke-width:2px;}.cls-2{fill:#fff;}.cls-2,.cls-3{stroke-width:7px;}.cls-4,.cls-6,.cls-7{stroke-width:5px;}.cls-5{stroke:#1e0e00;stroke-width:3px;fill:url(#Безымянный_градиент_49);}.cls-5,.cls-6,.cls-7{stroke-miterlimit:10;}.cls-6{fill:url(#Безымянный_градиент_66);}.cls-7{fill:url(#Безымянный_градиент_66-2);}</style><linearGradient id="Безымянный_градиент_49" x1="90.89" y1="38.21" x2="98.3" y2="38.21" gradientUnits="userSpaceOnUse"><stop offset="0" stop-color="#ff6c4c"/><stop offset="1" stop-color="#ff4759"/></linearGradient><linearGradient id="Безымянный_градиент_66" x1="2.5" y1="21.3" x2="36.1" y2="21.3" gradientUnits="userSpaceOnUse"><stop offset="0" stop-color="#4c50ba"/><stop offset="1" stop-color="#ff4a60"/></linearGradient><linearGradient id="Безымянный_градиент_66-2" x1="153.1" y1="21.22" x2="186.7" y2="21.22" xlink:href="#Безымянный_градиент_66"/></defs><title>Ресурс 1</title><g id="Слой_2" data-name="Слой 2"><g id="Слой_1-2" data-name="Слой 1"><line class="cls-1" x1="29.02" y1="39.02" x2="90.89" y2="39.02"/><line class="cls-1" x1="157.11" y1="38.94" x2="98.3" y2="38.94"/><path class="cls-2" d="M29,53.87a9.72,9.72,0,0,1-9.72,9.72h0a9.72,9.72,0,0,1-9.72-9.72V26.16a9.72,9.72,0,0,1,9.72-9.72h0A9.72,9.72,0,0,1,29,26.16Z"/><line class="cls-3" x1="29.02" y1="53.87" x2="86.6" y2="53.87"/><line class="cls-4" x1="36.1" y1="24.25" x2="71.78" y2="24.25"/><line class="cls-4" x1="71.78" y1="24.25" x2="75.84" y2="28.31"/><line class="cls-4" x1="75.84" y1="28.31" x2="36.1" y2="28.31"/><line class="cls-3" x1="86.6" y1="53.87" x2="90.89" y2="49.57"/><line class="cls-3" x1="102.6" y1="53.87" x2="98.3" y2="49.57"/><line class="cls-3" x1="90.89" y1="49.57" x2="98.3" y2="49.57"/><path class="cls-2" d="M160.18,53.79a9.72,9.72,0,0,0,9.72,9.72h0a9.72,9.72,0,0,0,9.72-9.72V26.08a9.72,9.72,0,0,0-9.72-9.72h0a9.72,9.72,0,0,0-9.72,9.72Z"/><line class="cls-3" x1="160.18" y1="53.87" x2="102.91" y2="53.87"/><line class="cls-4" x1="153.1" y1="24.17" x2="117.42" y2="24.17"/><line class="cls-4" x1="117.42" y1="24.17" x2="113.35" y2="28.23"/><line class="cls-4" x1="113.35" y1="28.23" x2="153.1" y2="28.23"/><line class="cls-3" x1="102.6" y1="53.79" x2="98.3" y2="49.49"/><line class="cls-3" x1="86.6" y1="53.79" x2="90.89" y2="49.49"/><line class="cls-3" x1="98.3" y1="49.49" x2="90.89" y2="49.49"/><line class="cls-4" x1="75.84" y1="28.31" x2="90.89" y2="28.31"/><line class="cls-4" x1="113.35" y1="28.23" x2="98.3" y2="28.23"/><path class="cls-5" d="M98.3,49.63c0,1.16-.62,2.09-1.39,2.09H92.28c-.76,0-1.39-.93-1.39-2.09V26.79c0-1.15.63-2.08,1.39-2.08h4.63c.77,0,1.39.93,1.39,2.08Z"/><path class="cls-6" d="M36.1,18.57V40L2.5,24.25V18.57c0-8.83,7.52-16,16.8-16A17.2,17.2,0,0,1,31.18,7.26,15.59,15.59,0,0,1,36.1,18.57Z"/><path class="cls-7" d="M186.7,18.49v5.68L153.1,39.94V18.49A15.55,15.55,0,0,1,158,7.19,17.16,17.16,0,0,1,169.9,2.5C179.18,2.5,186.7,9.66,186.7,18.49Z"/></g></g></svg>